<svg width="373" height="94" viewBox="0 0 373 94" fill="none" xmlns="http://www.w3.org/2000/svg">
<path d="M13.2958 13.5408V38.3952H23.0504C24.9657 38.3952 26.7029 38.0611 28.2619 37.4153C29.8208 36.7471 31.1571 35.8563 32.2706 34.7205C33.3842 33.5847 34.2527 32.2707 34.8541 30.7785C35.4554 29.2641 35.7672 27.6829 35.7672 25.968C35.7672 24.2531 35.4554 22.6719 34.8541 21.1575C34.2527 19.643 33.3842 18.3291 32.2706 17.2155C31.1571 16.0797 29.8208 15.1889 28.2619 14.5207C26.7029 13.8526 24.9657 13.5408 23.0504 13.5408H13.2958ZM0 1.38086H24.0081C27.6383 1.38086 31.0012 2.02672 34.0523 3.31843C37.1257 4.61015 39.7537 6.34728 42.003 8.55211C44.2524 10.7569 45.9895 13.3404 47.259 16.3692C48.5284 19.3758 49.1743 22.5828 49.1743 25.968C49.1743 29.3532 48.5284 32.5602 47.259 35.5668C45.9895 38.5734 44.2301 41.1791 42.003 43.3839C39.7759 45.5887 37.1034 47.3259 34.0078 48.6176C30.9121 49.9093 27.5492 50.5551 23.919 50.5551H13.2958V70.1313H0V1.38086Z" fill="#383E42"/>
<path d="M77.3243 59.1749C79.106 59.1749 80.754 58.8408 82.2462 58.195C83.7383 57.5269 85.0301 56.636 86.1213 55.4557C87.2126 54.2976 88.0589 52.939 88.6602 51.4023C89.2616 49.8656 89.5733 48.2176 89.5733 46.4582C89.5733 44.6988 89.2616 43.0507 88.6602 41.514C88.0589 39.9773 87.2126 38.6411 86.1213 37.5053C85.0301 36.3694 83.7383 35.4786 82.2462 34.8327C80.754 34.1646 79.106 33.8528 77.3243 33.8528C75.5426 33.8528 73.8723 34.1646 72.3133 34.7882C70.7544 35.4118 69.3958 36.3026 68.2378 37.4162C67.1019 38.552 66.1888 39.8883 65.5207 41.4249C64.8526 42.9616 64.5185 44.632 64.5185 46.4582C64.5185 48.2844 64.8526 49.9547 65.5207 51.4914C66.1888 53.0281 67.1019 54.3644 68.2378 55.5002C69.3958 56.636 70.7321 57.5269 72.3133 58.195C73.8723 58.8408 75.5426 59.1749 77.3243 59.1749ZM74.7409 71.0453C72.1797 71.0453 69.5517 70.5331 66.857 69.5309C64.1399 68.5287 61.6678 67.0143 59.4407 65.0099C57.2136 63.0055 55.3651 60.4666 53.8953 57.3932C52.4254 54.3198 51.6904 50.7119 51.6904 46.5695C51.6904 42.4271 52.4031 38.8192 53.8062 35.7458C55.2092 32.6725 57.0132 30.1113 59.2626 28.0846C61.4897 26.058 64.0063 24.5436 66.7679 23.5636C69.5517 22.5837 72.2688 22.0938 74.9413 22.0938C78.0593 22.0938 80.8209 22.606 83.2038 23.6527C85.5868 24.6772 87.5912 26.0134 89.1725 27.6615V23.0514H102.268V70.1099H89.1725V64.8763C87.5912 66.6802 85.5646 68.1724 83.1148 69.3305C80.665 70.4886 77.8811 71.0676 74.7409 71.0676" fill="#383E42"/>
<path d="M260.749 1.38086H247.653V70.0868H260.749V1.38086Z" fill="#383E42"/>
<path d="M292.418 59.1749C294.2 59.1749 295.848 58.8408 297.34 58.195C298.832 57.5269 300.124 56.636 301.215 55.4557C302.306 54.2976 303.153 52.939 303.754 51.4023C304.355 49.8656 304.667 48.2176 304.667 46.4582C304.667 44.6988 304.355 43.0507 303.754 41.514C303.153 39.9773 302.306 38.6411 301.215 37.5053C300.124 36.3694 298.832 35.4786 297.34 34.8327C295.848 34.1646 294.2 33.8528 292.418 33.8528C290.636 33.8528 288.966 34.1646 287.407 34.7882C285.848 35.4118 284.49 36.3026 283.332 37.4162C282.196 38.552 281.283 39.8883 280.614 41.4249C279.946 42.9616 279.612 44.632 279.612 46.4582C279.612 48.2844 279.946 49.9547 280.614 51.4914C281.283 53.0281 282.196 54.3644 283.332 55.5002C284.49 56.636 285.826 57.5269 287.407 58.195C288.966 58.8408 290.636 59.1749 292.418 59.1749ZM289.835 71.0453C287.273 71.0453 284.645 70.5331 281.951 69.5309C279.234 68.5287 276.762 67.0143 274.534 65.0099C272.307 63.0055 270.459 60.4666 268.989 57.3932C267.519 54.3198 266.784 50.7119 266.784 46.5695C266.784 42.4271 267.497 38.8192 268.9 35.7458C270.303 32.6725 272.107 30.1113 274.356 28.0846C276.583 26.058 279.1 24.5436 281.862 23.5636C284.645 22.5837 287.363 22.0938 290.035 22.0938C293.153 22.0938 295.915 22.606 298.298 23.6527C300.681 24.6772 302.685 26.0134 304.266 27.6615V23.0514H317.362V70.1099H304.266V64.8763C302.685 66.6802 300.658 68.1724 298.208 69.3305C295.759 70.4886 292.953 71.0676 289.835 71.0676" fill="#383E42"/>
<path d="M341.057 68.0147L322.016 23.0273H335.779L347.56 52.0241L358.562 23.0273H372.125L344.398 91.8446H331.28L341.057 68.0147Z" fill="#383E42"/>
<path d="M194.292 23.0273H179.259L159.639 46.5678L179.259 70.0859H194.292L174.672 46.5678L194.292 23.0273Z" fill="#383E42"/>
<path d="M159.616 1.38086H146.521V70.0868H159.616V1.38086Z" fill="#383E42"/>
<path d="M217.075 58.4177C210.416 58.4177 205.026 53.1172 205.026 46.5473C205.026 39.9773 210.416 34.6768 217.075 34.6768C223.734 34.6768 229.123 39.9773 229.123 46.5473C229.123 53.1172 223.734 58.4177 217.075 58.4177ZM217.075 22.0938C203.334 22.0938 192.198 33.0511 192.198 46.5695C192.198 60.088 203.334 71.0453 217.075 71.0453C230.816 71.0453 241.952 60.088 241.952 46.5695C241.952 33.0511 230.816 22.0938 217.075 22.0938Z" fill="#383E42"/>
<path d="M135.809 23.0273C132.557 23.0273 129.84 23.6955 127.68 25.054C125.519 26.4125 123.827 28.3056 122.602 30.7554V23.0273H109.596V70.0859H122.691V44.3407C122.691 39.4856 126.7 35.5436 131.622 35.5436H141.042V23.0273H135.786H135.809Z" fill="#383E42"/>
<path d="M217.097 93.1367C216.674 93.1367 216.296 92.9808 216.006 92.6913L200.817 77.7475C200.283 77.213 200.216 76.389 200.661 75.7876C200.973 75.3868 201.441 75.1641 201.931 75.1641C202.176 75.1641 202.399 75.2086 202.621 75.32C207.165 77.5471 212.042 78.6829 217.12 78.6829C222.197 78.6829 227.075 77.5471 231.618 75.32C231.841 75.2086 232.064 75.1641 232.308 75.1641C232.798 75.1641 233.266 75.3868 233.578 75.7876C234.023 76.389 233.957 77.2353 233.422 77.7475L218.233 92.6913C217.944 92.9808 217.543 93.1367 217.142 93.1367" fill="#0DAAB6"/>
<path d="M232.265 17.9949C232.02 17.9949 231.797 17.9504 231.574 17.839C227.031 15.6119 222.154 14.4761 217.076 14.4761C211.998 14.4761 207.121 15.6119 202.577 17.839C202.355 17.9504 202.132 17.9949 201.887 17.9949C201.397 17.9949 200.929 17.7722 200.618 17.3714C200.172 16.77 200.239 15.9237 200.773 15.4115L215.984 0.445419C216.274 0.155897 216.675 0 217.076 0C217.477 0 217.877 0.155897 218.167 0.445419L233.356 15.3892C233.89 15.9237 233.957 16.7478 233.512 17.3491C233.222 17.75 232.732 17.9727 232.265 17.9727" fill="#0DAAB6"/>
</svg>
